<?xml version="1.0" encoding="UTF-8"?>
<svg width="77px" height="24px" viewBox="0 0 77 24" version="1.1" xmlns="http://www.w3.org/2000/svg" xmlns:xlink="http://www.w3.org/1999/xlink">
    <!-- Generator: Sketch 49 (51002) - http://www.bohemiancoding.com/sketch -->
    <title>digiLogo</title>
    <desc>Created with Sketch.</desc>
    <defs></defs>
    <g id="digiLogo" stroke="none" stroke-width="1" fill="none" fill-rule="evenodd">
        <g id="Group">
            <path d="M17.5724146,12.0048819 C17.5697211,15.0808035 15.0752483,17.5730879 11.9988216,17.5724146 C8.9210482,17.5717412 6.42674373,15.0762583 6.42741709,11.9986533 C6.42809046,8.92340497 8.91970148,6.43095225 11.9937714,6.42741709 L11.9937714,0 C5.36922732,0.00319847371 0,5.37444588 0,11.9998317 C0,18.6272375 5.37259413,24 12,24 C18.6257225,24 23.9973065,18.6300993 24,12.0048819 L17.5724146,12.0048819" id="Fill-25" fill="#FE4C45"></path>
            <path d="M29.4987539,17.4999999 C26.4612806,17.4995014 23.9993356,15.0363933 24.0000001,11.99892 C24.0006647,8.9614467 26.4636066,6.49950164 29.5012461,6.50000008 C32.5388855,6.50066466 35.0006644,8.96377274 34.9999999,12.0014122 C34.9993353,15.0388855 32.5363934,17.5006644 29.4987539,17.4999999 Z M29.4999158,0 C22.8725564,0 17.5,5.37255645 17.5,11.9999158 C17.5,18.6272752 22.8725564,24 29.4999158,24 C36.1274436,24 41.5,18.6272752 41.5,11.9999158 C41.5,5.37255645 36.1274436,0 29.4999158,0 Z" id="Fill-26" fill="#2196F3"></path>
            <path d="M52.8724138,12.0048819 C52.8697204,15.0808035 50.3752475,17.5730879 47.2988209,17.5724146 C44.2210474,17.5717412 41.726743,15.0762583 41.7274163,11.9986533 C41.7280897,8.92340497 44.2197007,6.43095225 47.2937706,6.42741709 L47.2937706,0 C40.6692266,0.00319847371 35.2999992,5.37444588 35.2999992,11.9998317 C35.2999992,18.6272375 40.6725934,24 47.2999992,24 C53.9257217,24 59.2973058,18.6300993 59.2999992,12.0048819 L52.8724138,12.0048819" id="Fill-25-Copy" fill="#FE4C45"></path>
            <path d="M64.8987554,17.4999999 C61.8612821,17.4995014 59.3993371,15.0363933 59.4000017,11.99892 C59.4006662,8.9614467 61.8636082,6.49950164 64.9012476,6.50000008 C67.9388871,6.50066466 70.400666,8.96377274 70.4000014,12.0014122 C70.3993368,15.0388855 67.9363949,17.5006644 64.8987554,17.4999999 Z M64.8999174,0 C58.272558,0 52.9000015,5.37255645 52.9000015,11.9999158 C52.9000015,18.6272752 58.272558,24 64.8999174,24 C71.5274451,24 76.9000015,18.6272752 76.9000015,11.9999158 C76.9000015,5.37255645 71.5274451,0 64.8999174,0 Z" id="Fill-26-Copy" fill="#2196F3"></path>
        </g>
    </g>
</svg>